<svg width="84" height="82" viewBox="0 0 84 82" fill="none" xmlns="http://www.w3.org/2000/svg">
<path fill-rule="evenodd" clip-rule="evenodd" d="M32.1826 16.4747L27.8724 14.8464C27.2019 14.559 26.723 13.8885 26.8188 13.1223V13.0265C26.8188 13.0265 26.8188 12.9307 26.9146 12.9307H27.0103L31.7037 14.7506H31.7995V14.6548C31.7995 14.559 31.7995 14.3674 31.7995 14.2717C31.7995 14.2717 31.7995 14.1759 31.7037 14.1759L25.7652 11.8771C24.8073 11.494 24.1369 10.5361 24.2326 9.48251V9.29095C24.2326 9.29095 24.2326 9.19516 24.3284 9.19516H24.4242L31.8953 12.0687H31.9911C31.9911 12.0687 32.0868 12.0687 32.0868 11.9729C32.0868 11.8771 32.1826 11.6855 32.1826 11.5897C32.1826 11.494 32.1826 11.494 32.0868 11.494L24.1369 8.4289C22.7959 7.94999 21.9338 6.60903 22.1254 5.0765V4.98071C22.1254 4.98071 22.1254 4.88493 22.2212 4.88493H22.317L33.6194 9.19516H33.7152C33.8109 9.09938 33.9067 9.0036 34.0025 8.90782V8.81203C34.0025 8.81203 34.0025 8.71625 33.9067 8.71625L22.6043 4.31023C21.0718 3.73554 20.114 2.20301 20.3055 0.478915V0.095783C20.3055 0.095783 20.3055 0 20.4013 0H20.4971L37.0676 6.32168C37.8338 6.60902 38.3127 7.47107 38.1212 8.23734L37.6423 10.0572C37.6423 10.153 37.5465 10.2488 37.4507 10.2488C35.9182 10.9193 34.9603 12.2602 34.9603 13.8885C34.9603 14.4632 35.0561 15.0379 35.3435 15.5168C36.3971 12.7391 39.079 10.8235 42.0483 10.8235C45.1133 10.8235 47.6995 12.7391 48.7531 15.5168C48.9446 15.0379 49.1362 14.4632 49.1362 13.8885C49.1362 12.2602 48.1784 10.8235 46.6459 10.2488C46.5501 10.2488 46.4543 10.153 46.4543 10.0572L46.0712 8.23734C45.8796 7.47107 46.3585 6.60902 47.1248 6.32168L63.6952 0H63.791C63.791 0 63.8868 0 63.8868 0.095783V0.478915C64.0784 2.10723 63.1205 3.63975 61.588 4.31023L50.2856 8.62047C50.2856 8.62047 50.1898 8.62047 50.1898 8.71625V8.81203C50.2856 8.90782 50.3814 9.0036 50.4772 9.09938H50.573L61.8754 4.78915H61.9711C61.9711 4.78915 62.0669 4.78915 62.0669 4.88493V4.98071C62.2585 6.41746 61.3964 7.75842 60.0555 8.33312L52.1055 11.3982C52.0097 11.494 52.0097 11.494 52.0097 11.5897C52.0097 11.6855 52.1055 11.8771 52.1055 11.9729C52.1055 11.9729 52.1055 12.0687 52.2013 12.0687H52.2971L59.7681 9.19516H59.8639C59.8639 9.19516 59.9597 9.19516 59.9597 9.29095V9.48251C60.0555 10.5361 59.4808 11.494 58.4272 11.8771L52.4886 14.1759L52.3928 14.2717C52.3928 14.3674 52.3928 14.559 52.3928 14.6548V14.7506H52.4886L57.182 12.9307H57.2778C57.2778 12.9307 57.3735 12.9307 57.3735 13.0265V13.1223C57.4693 13.8885 56.9904 14.559 56.3199 14.8464L52.0097 16.4747C51.9139 16.8578 51.7224 17.1451 51.5308 17.5283L54.1169 18.6777C54.6916 18.965 54.8832 19.5397 54.6916 20.1144L54.4043 20.7849C54.3085 20.8807 54.2127 20.9765 54.1169 20.9765H43.9639L43.6766 36.0144L46.0712 34.865C47.4121 34.1945 48.2742 33.1409 48.5615 31.6084L49.1362 28.256C49.232 27.9686 49.1362 27.7771 48.9446 27.4897C48.7531 27.2981 48.5615 27.2024 48.2742 27.2024H45.9754C45.8796 27.2024 45.8796 27.2024 45.7838 27.1066C45.7838 27.1066 45.688 27.0108 45.688 26.915L45.7838 25.1909C45.8796 23.7542 47.029 22.7006 48.4657 22.7006H49.7109C50.8603 22.7006 51.8181 23.1795 52.4886 24.0415C53.1591 24.9036 53.4464 25.9572 53.1591 27.0108L51.8181 32.9493C51.3392 35.1524 49.9025 36.7807 47.7952 37.6427L45.8796 38.409L47.7952 39.271C49.7109 40.1331 50.7645 42.2403 50.2856 44.2517L49.6151 47.4126C49.3278 48.7535 48.5615 49.8071 47.3163 50.5734L43.7724 52.6806L45.4965 53.83C46.4543 54.5005 46.9332 55.6499 46.5501 56.7035L46.2627 58.5234C46.0712 59.0981 45.5922 59.4812 44.9218 59.4812H44.826L45.2091 56.7993C45.3049 56.2246 45.0175 55.7457 44.5386 55.4583L43.1977 54.6921L43.0061 63.7915C43.0061 63.8872 43.0061 63.8872 42.9103 63.983L42.1441 64.6535C42.0483 64.7493 41.9525 64.7493 41.8567 64.6535L41.0904 63.983C40.9947 63.983 40.9947 63.8872 40.9947 63.7915L40.8031 54.6921L39.5579 55.5541C39.079 55.8415 38.8874 56.3204 38.8874 56.8951L39.2706 59.577H39.1748C38.6001 59.577 38.0254 59.1939 37.8338 58.6192L37.4507 57.0866C37.1633 55.9373 37.5465 54.7879 38.5043 54.2132L40.2284 53.0638L36.7802 50.765C35.6308 50.0945 34.8646 48.9451 34.4814 47.6041L33.8109 44.5391C33.332 42.5276 34.3856 40.4204 36.3013 39.5584L38.217 38.6963L36.3013 37.9301C34.1941 37.068 32.7573 35.4397 32.2784 33.2367L30.9374 27.2981C30.6501 26.2445 30.9374 25.1909 31.6079 24.3289C32.2784 23.4668 33.2362 22.9879 34.3856 22.9879H35.6308C37.0676 22.9879 38.217 24.0415 38.3127 25.4783L38.4085 27.2024C38.4085 27.2981 38.4085 27.2981 38.3127 27.3939C38.3127 27.3939 38.217 27.4897 38.1212 27.4897H35.8224C35.535 27.4897 35.3435 27.5855 35.1519 27.7771C34.9603 27.9686 34.8646 28.256 34.9603 28.5433L35.535 31.8957C35.8224 33.3325 36.6844 34.4819 38.0254 35.1523L40.42 36.3017L40.2284 21.0723H30.0754C29.9796 21.0723 29.7881 20.9765 29.7881 20.8807L29.5007 20.2102C29.3091 19.6355 29.5007 18.965 30.0754 18.7735L32.6615 17.6241C32.47 17.2409 32.2784 16.8578 32.1826 16.4747ZM43.5808 40.8035L43.3892 50.8608L46.1669 49.0409C46.9332 48.562 47.4121 47.7957 47.5079 46.9337L47.7952 44.9222C47.9868 43.5812 47.3163 42.3361 45.9754 41.8572L43.5808 40.8035ZM40.8031 50.8608L40.6115 40.8035L38.217 41.7614C36.9718 42.2403 36.2055 43.4855 36.3971 44.8264L36.6844 46.9337C36.7802 47.7957 37.2591 48.562 38.0254 49.0409L40.8031 50.8608Z" fill="#021A0D"/>
<path fill-rule="evenodd" clip-rule="evenodd" d="M42.1462 69.0596C32.3764 68.9638 26.0547 67.7186 21.936 66.5693V61.7801C21.7444 61.397 19.9246 61.397 15.5186 61.1096C8.71796 60.6307 2.58785 56.1289 2.58785 56.1289C5.07821 62.3548 9.86736 66.1861 9.86736 66.1861C8.43062 67.5271 0.289062 68.006 0.289062 68.006C5.65291 72.2204 14.2734 72.5078 14.2734 72.5078V62.9295C15.7101 63.2168 20.1161 63.6 21.4571 62.6421V66.4735C19.4457 65.8988 15.9017 65.0367 14.6565 63.3126V75.6686C26.4378 81.6072 42.1462 81.1283 42.1462 81.1283C42.1462 81.1283 57.8546 81.6072 69.6359 75.6686V63.3126C68.3908 65.0367 64.8468 66.3777 62.8353 66.9524V62.6421C64.1763 63.6 68.5823 63.2168 70.0191 62.9295V72.5078C70.0191 72.5078 78.5438 72.2204 84.0034 68.006C84.0034 68.006 75.8618 67.5271 74.4251 66.1861C74.4251 66.1861 79.2142 62.3548 81.8004 56.2247C81.8004 56.2247 75.6703 60.7265 68.8697 61.2054C64.3679 61.4928 62.6438 61.4928 62.4522 61.8759V67.0482C58.2378 68.1976 51.9161 68.9638 42.1462 69.0596ZM18.392 67.9102V70.4006C18.392 70.9753 18.6794 71.3584 19.2541 71.4542C19.3499 71.4542 19.4457 71.4542 19.5414 71.4542V68.3891L20.4993 68.7723V75.5728L19.5414 75.1897V72.412C19.4457 72.412 19.2541 72.412 19.1583 72.3162C18.6794 72.2204 18.1047 71.9331 17.8173 71.4542C17.53 71.071 17.4342 70.5921 17.4342 70.1132V67.4313L18.392 67.9102ZM25.3842 70.0174V76.9138L24.3306 76.6265V70.7837L23.3728 70.4963V73.1783C23.3728 73.8488 23.3728 74.8066 23.0854 75.4771C22.8938 75.956 22.5107 76.1475 22.0318 76.2433L21.6487 75.3813C21.936 75.2855 22.1276 75.0939 22.3191 74.8066C22.5107 74.4235 22.5107 73.753 22.5107 73.2741V69.347L25.3842 70.0174ZM26.9167 77.2969V70.4006L29.886 70.8795V71.8373L27.9703 71.4542V73.3698L29.6944 73.6572V74.7108L27.9703 74.4234V76.4349L29.886 76.818V77.7759L26.9167 77.2969ZM33.5258 78.2548V75.2855L32.2806 75.0939V78.0632L31.227 77.9674V71.071L32.2806 71.1668V74.0403L33.5258 74.2319V71.3584L34.5794 71.4542V78.2548H33.5258ZM40.901 78.7337V72.8909H39.8474V78.7337H38.7938V71.8373L41.9547 71.9331V78.8295L40.901 78.7337ZM46.0733 78.7337L45.786 77.2969L44.5408 77.3927L44.2534 78.8295H43.1998L44.5408 71.9331H45.6902L47.0312 78.7337H46.0733ZM45.1155 73.4656L45.5944 76.2433H44.6366L45.1155 73.4656ZM51.8203 71.4542V78.3506L50.7667 78.4463V72.6036L49.7131 72.6994V75.3813C49.7131 76.1475 49.7131 77.1054 49.4257 77.7759C49.2342 78.3505 48.851 78.6379 48.2763 78.9253L47.8932 78.159C48.1805 77.9674 48.4679 77.6801 48.5637 77.3927C48.7552 76.9138 48.7552 76.3391 48.7552 75.8602V71.9331L51.8203 71.4542ZM55.8432 77.6801L55.5558 76.3391L54.3107 76.5307C54.2149 77.0096 54.1191 77.4885 54.0233 77.9674L52.9697 78.0632L54.3107 70.9753L55.4601 70.7837L56.801 77.3927L55.8432 77.6801ZM54.5022 75.4771L54.9811 72.6036L55.4601 75.3813L54.5022 75.4771ZM59.3872 71.071V76.9138L58.3335 77.2012V71.3584L57.2799 71.6457V70.6879L60.4408 69.9217V70.8795L59.3872 71.071ZM61.6859 76.3391V69.4427L62.6438 69.0596V71.8373L63.0269 71.6457C63.3143 71.55 63.6016 71.4542 63.889 71.4542C64.3679 71.4542 64.5594 71.7415 64.6552 72.2204C64.751 72.412 64.751 72.6994 64.751 73.0825C64.751 74.3277 64.2721 75.3813 63.0269 75.8602L61.6859 76.3391ZM62.6438 74.9982V72.7951L63.0269 72.6994C63.6974 72.412 63.889 72.8909 63.889 73.4656C63.889 74.0403 63.6974 74.615 63.1227 74.9024L62.6438 74.9982ZM65.3257 75.0939V68.1976L66.2835 67.8144V74.7108L65.3257 75.0939Z" fill="#021A0D"/>
</svg>
