<svg width="20" height="20" viewBox="0 0 20 20" fill="none" xmlns="http://www.w3.org/2000/svg">
<path d="M8.3737 11.0243L2.97786 8.83675C2.79731 8.76731 2.66536 8.65967 2.58203 8.51383C2.4987 8.368 2.45703 8.2187 2.45703 8.06592C2.45703 7.91314 2.50217 7.76383 2.59245 7.618C2.68273 7.47217 2.81814 7.36453 2.9987 7.29508L15.7904 2.54508C15.957 2.47564 16.1168 2.46175 16.2695 2.50342C16.4223 2.54508 16.5543 2.62147 16.6654 2.73258C16.7765 2.8437 16.8529 2.97564 16.8945 3.12842C16.9362 3.2812 16.9223 3.44092 16.8529 3.60758L12.1029 16.3993C12.0334 16.5798 11.9258 16.7152 11.7799 16.8055C11.6341 16.8958 11.4848 16.9409 11.332 16.9409C11.1793 16.9409 11.0299 16.8993 10.8841 16.8159C10.7383 16.7326 10.6306 16.6006 10.5612 16.4201L8.3737 11.0243Z" fill="#021A0D" fill-opacity="0.4"/>
</svg>
