<svg width="24" height="24" viewBox="0 0 24 24" fill="none" xmlns="http://www.w3.org/2000/svg">
<path d="M12.2502 11.1428C15.4166 11.1428 17.9839 8.71392 17.9839 5.71842C17.9839 2.72291 15.4166 0.294067 12.2502 0.294067C9.08387 0.294067 6.51651 2.72291 6.51651 5.71842C6.51651 8.71392 9.08387 11.1428 12.2502 11.1428ZM12.2502 3.27451C13.6763 3.27451 14.8329 4.36866 14.8329 5.71781C14.8329 7.06697 13.6763 8.16112 12.2502 8.16112C10.8241 8.16112 9.66756 7.06697 9.66756 5.71781C9.66756 4.36866 10.8241 3.27451 12.2502 3.27451ZM19.8593 13.7241C18.4529 14.7713 16.8898 15.488 15.17 15.8745C15.1483 15.8793 15.1426 15.8913 15.1527 15.91C16.2054 17.8343 17.26 19.7567 18.3172 21.6768C18.4727 21.9589 18.4204 22.1741 18.0502 22.1747C16.9178 22.1765 15.7963 22.1771 14.685 22.1753C14.5786 22.1753 14.4824 22.115 14.441 22.0222L12.2681 17.1886C12.2636 17.179 12.2521 17.1748 12.2419 17.179C12.2375 17.1808 12.2336 17.1844 12.2317 17.1886C11.5321 18.747 10.8324 20.3029 10.1327 21.8564C10.0282 22.0879 10.0066 22.1753 9.70261 22.1759C8.57409 22.1765 7.44685 22.1759 6.32024 22.1747C6.01183 22.1747 6.07555 21.8408 6.16731 21.6744C7.22446 19.7555 8.28352 17.8373 9.34321 15.9197C9.35405 15.9004 9.34831 15.8877 9.32601 15.8811C9.10489 15.8178 8.88442 15.7563 8.66585 15.696C7.20215 15.2927 5.85762 14.632 4.63288 13.7151C4.44363 13.5734 4.47549 13.4354 4.60994 13.2636C5.15349 12.5679 5.69577 11.8734 6.2374 11.1795C6.32534 11.0662 6.4942 11.0415 6.614 11.1247C6.61782 11.1277 6.62228 11.1307 6.62611 11.1337C10.206 13.9206 14.3881 13.9442 17.9399 11.1096C18.0317 11.0361 18.1693 11.0469 18.2471 11.1337C18.2503 11.1373 18.2535 11.1416 18.2566 11.1452C18.8078 11.8583 19.3469 12.5564 19.8726 13.2388C20.016 13.4245 20.0721 13.5662 19.8593 13.7241Z" fill="#021A0D" fill-opacity="0.4"/>
</svg>
