<svg width="38" height="48" viewBox="0 0 38 48" fill="none" xmlns="http://www.w3.org/2000/svg">
<path d="M18.9948 23.9993C20.2781 23.9993 21.3767 23.5424 22.2906 22.6285C23.2045 21.7146 23.6615 20.616 23.6615 19.3327C23.6615 18.0493 23.2045 16.9507 22.2906 16.0368C21.3767 15.123 20.2781 14.666 18.9948 14.666C17.7115 14.666 16.6128 15.123 15.699 16.0368C14.7851 16.9507 14.3281 18.0493 14.3281 19.3327C14.3281 20.616 14.7851 21.7146 15.699 22.6285C16.6128 23.5424 17.7115 23.9993 18.9948 23.9993ZM18.9948 47.3327C12.7337 42.0049 8.05729 37.0563 4.96563 32.4868C1.87396 27.9174 0.328125 23.6882 0.328125 19.7993C0.328125 13.966 2.20451 9.31879 5.95729 5.85768C9.71007 2.39657 14.0559 0.666016 18.9948 0.666016C23.9337 0.666016 28.2795 2.39657 32.0323 5.85768C35.7851 9.31879 37.6615 13.966 37.6615 19.7993C37.6615 23.6882 36.1156 27.9174 33.024 32.4868C29.9323 37.0563 25.2559 42.0049 18.9948 47.3327Z" fill="#F00000"/>
</svg>
