<svg width="44" height="44" viewBox="0 0 44 44" fill="none" xmlns="http://www.w3.org/2000/svg">
<path fill-rule="evenodd" clip-rule="evenodd" d="M14.067 42.044L11.0788 37.0073L5.41157 35.7738C4.89637 35.671 4.48421 35.4055 4.17509 34.9772C3.86597 34.5489 3.74575 34.0778 3.81445 33.5638L4.38117 27.7562L0.517155 23.3362C0.173687 22.9593 0.00195312 22.5139 0.00195312 21.9999C0.00195312 21.486 0.173687 21.0405 0.517155 20.6636L4.38117 16.2437L3.81445 10.436C3.74575 9.92205 3.86597 9.45093 4.17509 9.02264C4.48421 8.59435 4.89637 8.3288 5.41157 8.22601L11.0788 6.99253L14.067 1.95581C14.3417 1.51038 14.7195 1.21058 15.2004 1.05639C15.6813 0.902209 16.1621 0.927907 16.643 1.13349L22.0011 3.39487L27.3592 1.13349C27.84 0.927907 28.3209 0.902209 28.8017 1.05639C29.2826 1.21058 29.6604 1.51038 29.9352 1.95581L32.9233 6.99253L38.5906 8.22601C39.1058 8.3288 39.5179 8.59435 39.827 9.02264C40.1362 9.45093 40.2564 9.92205 40.1877 10.436L39.621 16.2437L43.485 20.6636C43.8284 21.0405 44.0002 21.486 44.0002 21.9999C44.0002 22.5139 43.8284 22.9593 43.485 23.3362L39.621 27.7562L40.1877 33.5638C40.2564 34.0778 40.1362 34.5489 39.827 34.9772C39.5179 35.4055 39.1058 35.671 38.5906 35.7738L32.9233 37.0073L29.9352 42.044C29.6604 42.4894 29.2826 42.7892 28.8017 42.9434C28.3209 43.0976 27.84 43.0719 27.3592 42.8663L22.0011 40.6049L16.643 42.8663C16.1621 43.0719 15.6813 43.0976 15.2004 42.9434C14.7195 42.7892 14.3417 42.4894 14.067 42.044ZM10 24.6081L18.2056 33L35 15.8243L31.2606 12L18.2056 25.3649L13.7394 20.7838L10 24.6081Z" fill="#00C566"/>
</svg>
