<svg width="24" height="24" viewBox="0 0 24 24" fill="none" xmlns="http://www.w3.org/2000/svg">
<path d="M10.9492 12.7001L9.49922 11.2751C9.31589 11.0918 9.08672 11.0001 8.81172 11.0001C8.53672 11.0001 8.29922 11.1001 8.09922 11.3001C7.91589 11.4835 7.82422 11.7168 7.82422 12.0001C7.82422 12.2835 7.91589 12.5168 8.09922 12.7001L10.2492 14.8501C10.4492 15.0501 10.6826 15.1501 10.9492 15.1501C11.2159 15.1501 11.4492 15.0501 11.6492 14.8501L15.8992 10.6001C16.0992 10.4001 16.1951 10.1668 16.1867 9.90012C16.1784 9.63345 16.0826 9.40012 15.8992 9.20012C15.6992 9.00012 15.4617 8.89595 15.1867 8.88762C14.9117 8.87929 14.6742 8.97512 14.4742 9.17512L10.9492 12.7001ZM8.14922 21.7501L6.69922 19.3001L3.94922 18.7001C3.69922 18.6501 3.49922 18.521 3.34922 18.3126C3.19922 18.1043 3.14089 17.8751 3.17422 17.6251L3.44922 14.8001L1.57422 12.6501C1.40755 12.4668 1.32422 12.2501 1.32422 12.0001C1.32422 11.7501 1.40755 11.5335 1.57422 11.3501L3.44922 9.20012L3.17422 6.37512C3.14089 6.12512 3.19922 5.89595 3.34922 5.68762C3.49922 5.47929 3.69922 5.35012 3.94922 5.30012L6.69922 4.70012L8.14922 2.25012C8.28255 2.03345 8.46589 1.88762 8.69922 1.81262C8.93255 1.73762 9.16589 1.75012 9.39922 1.85012L11.9992 2.95012L14.5992 1.85012C14.8326 1.75012 15.0659 1.73762 15.2992 1.81262C15.5326 1.88762 15.7159 2.03345 15.8492 2.25012L17.2992 4.70012L20.0492 5.30012C20.2992 5.35012 20.4992 5.47929 20.6492 5.68762C20.7992 5.89595 20.8576 6.12512 20.8242 6.37512L20.5492 9.20012L22.4242 11.3501C22.5909 11.5335 22.6742 11.7501 22.6742 12.0001C22.6742 12.2501 22.5909 12.4668 22.4242 12.6501L20.5492 14.8001L20.8242 17.6251C20.8576 17.8751 20.7992 18.1043 20.6492 18.3126C20.4992 18.521 20.2992 18.6501 20.0492 18.7001L17.2992 19.3001L15.8492 21.7501C15.7159 21.9668 15.5326 22.1126 15.2992 22.1876C15.0659 22.2626 14.8326 22.2501 14.5992 22.1501L11.9992 21.0501L9.39922 22.1501C9.16589 22.2501 8.93255 22.2626 8.69922 22.1876C8.46589 22.1126 8.28255 21.9668 8.14922 21.7501Z" fill="white" fill-opacity="0.6"/>
</svg>
