<svg width="24" height="25" viewBox="0 0 24 25" fill="none" xmlns="http://www.w3.org/2000/svg">
<path d="M22.4 24.9778L13.7556 16.3334C13.0889 16.8963 12.3151 17.337 11.4342 17.6556C10.5534 17.9741 9.61603 18.1334 8.62223 18.1334C6.21243 18.1334 4.17295 17.2982 2.50377 15.6278C0.834589 13.9574 0 11.9334 0 9.55558C0 7.17781 0.835189 5.15373 2.50557 3.48335C4.17592 1.81297 6.2037 0.977783 8.5889 0.977783C10.9741 0.977783 12.9981 1.81297 14.6611 3.48335C16.3241 5.15373 17.1556 7.17892 17.1556 9.55892C17.1556 10.5197 17 11.4408 16.6889 12.3222C16.3778 13.2037 15.9259 14.0148 15.3333 14.7556L24 23.3778L22.4 24.9778ZM8.6 15.9112C10.3593 15.9112 11.8546 15.2908 13.0861 14.05C14.3176 12.8093 14.9333 11.3111 14.9333 9.55558C14.9333 7.80001 14.3176 6.30185 13.0861 5.06112C11.8546 3.82038 10.3593 3.20002 8.6 3.20002C6.8284 3.20002 5.32253 3.82038 4.0824 5.06112C2.84227 6.30185 2.2222 7.80001 2.2222 9.55558C2.2222 11.3111 2.84227 12.8093 4.0824 14.05C5.32253 15.2908 6.8284 15.9112 8.6 15.9112Z" fill="#021A0D"/>
</svg>
