<svg width="58" height="58" viewBox="0 0 58 58" fill="none" xmlns="http://www.w3.org/2000/svg">
<mask id="mask0_2037_5284" style="mask-type:alpha" maskUnits="userSpaceOnUse" x="0" y="0" width="58" height="58">
<rect width="58" height="58" fill="#D9D9D9"/>
</mask>
<g mask="url(#mask0_2037_5284)">
<path d="M28.9993 53.1666C23.4007 51.7569 18.7789 48.5447 15.1337 43.5301C11.4886 38.5155 9.66602 32.9471 9.66602 26.8249V12.0833L28.9993 4.83325L48.3327 12.0833V26.8249C48.3327 32.9471 46.5101 38.5155 42.865 43.5301C39.2198 48.5447 34.598 51.7569 28.9993 53.1666ZM28.9993 48.0916C32.9063 46.8832 36.1688 44.4968 38.7868 40.9322C41.4049 37.3676 42.9355 33.3902 43.3785 28.9999H28.9993V9.96867L14.4993 15.4062V27.9124C14.4993 28.1944 14.5396 28.5569 14.6202 28.9999H28.9993V48.0916Z" fill="#00C566"/>
</g>
</svg>
