<svg width="24" height="24" viewBox="0 0 24 24" fill="none" xmlns="http://www.w3.org/2000/svg">
<path fill-rule="evenodd" clip-rule="evenodd" d="M1.94364 10.5336C7.58077 8.06398 11.3397 6.43584 13.2206 5.64919C18.5907 3.40318 19.7065 3.01302 20.4338 3.00014C20.5938 2.9973 20.9514 3.03717 21.1831 3.22621C21.3787 3.38582 21.4326 3.60145 21.4583 3.75278C21.4841 3.90412 21.5162 4.24887 21.4907 4.51825C21.1997 7.59288 19.9405 15.0542 19.2999 18.4978C19.0288 19.9549 18.4951 20.4435 17.9784 20.4913C16.8554 20.5952 16.0027 19.7451 14.9151 19.0282C13.2132 17.9064 12.2517 17.208 10.5997 16.1133C8.69056 14.8482 9.92819 14.1529 11.0162 13.0166C11.301 12.7192 16.2486 8.19386 16.3444 7.78335C16.3564 7.73201 16.3675 7.54063 16.2544 7.43957C16.1414 7.33852 15.9745 7.37307 15.8541 7.40056C15.6834 7.43951 12.9646 9.24654 7.69761 12.8216C6.92588 13.3545 6.22687 13.6141 5.60058 13.6005C4.91015 13.5855 3.58204 13.208 2.59473 12.8853C1.38374 12.4894 0.421278 12.2802 0.505087 11.6079C0.54874 11.2578 1.02826 10.8997 1.94364 10.5336Z" fill="#021A0D" fill-opacity="0.4"/>
</svg>
