<svg width="180" height="180" viewBox="0 0 180 180" fill="none" xmlns="http://www.w3.org/2000/svg">
<rect x="9" y="9" width="162" height="162" rx="45" fill="#00C566"/>
<path fill-rule="evenodd" clip-rule="evenodd" d="M85.3018 145.548V100.198L61.3923 75.2803L68.8415 67.8799L85.3018 85.3976V49.7509H95.8382V109.054L112.188 92.7979L119.637 100.198L95.8382 123.865V145.44C104.155 144.503 110.818 141.463 115.828 136.32C121.937 130.031 125 120.79 125 108.629V71.5749C125 59.4146 121.954 50.1727 115.828 43.8841C109.702 37.5955 101.121 34.4512 90.0348 34.4512C78.9482 34.4512 70.3504 37.5955 64.2067 43.8841C58.0629 50.1727 54.9998 59.4146 54.9998 71.5749V108.629C54.9998 120.79 58.0629 130.031 64.2067 136.32C69.4452 141.682 76.4805 144.758 85.3018 145.548Z" fill="white"/>
</svg>
