<svg width="88" height="28" viewBox="0 0 88 28" fill="none" xmlns="http://www.w3.org/2000/svg">
<path d="M78.0613 5.47681C76.3762 5.47681 74.6408 6.01755 73.7291 7.74037V5.86036H69.1706V25H73.88V18.1527C74.7917 19.536 76.4139 20.0076 78.0676 20.0076C81.595 20.0076 83.8145 17.0272 83.8145 12.7265C83.8145 8.42573 81.6453 5.47681 78.0613 5.47681ZM76.3762 16.2602C74.4333 16.2602 73.6096 14.6191 73.6096 12.7265C73.6096 10.8339 74.4333 9.28085 76.3762 9.28085C78.3191 9.28085 79.1428 10.8653 79.1428 12.7265C79.1428 14.5876 78.4008 16.2602 76.3762 16.2602ZM6.43228 1.1509H22.2332V5.70946H12.9652V9.2054H20.1017V13.613H12.9652V19.8378H8.1048V5.55855H6.35054C5.52685 5.55855 4.65287 6.0427 4.65287 7.08646C4.65287 7.85355 5.17475 8.39429 5.80351 8.66466L4.57113 12.8963C1.97433 12.1795 0 10.0982 0 7.03615C0 3.25727 3.06838 1.1509 6.43228 1.1509ZM67.3471 11.142V19.6869H62.6377V12.104C62.6377 10.5132 62.3359 9.55751 60.9652 9.55751C59.4876 9.55751 58.9908 10.7081 58.9908 12.1857V19.6869H54.2814V12.104C54.2814 10.5132 53.8853 9.55751 52.5208 9.55751C51.0181 9.55751 50.4836 10.8716 50.4836 12.4058V19.6869H45.7742V5.86036H50.3327V7.92271C51.2444 5.96096 52.9358 5.47053 54.4637 5.47053C56.2054 5.47053 57.4881 6.17474 58.2615 7.88499C59.2172 6.18732 60.5816 5.50197 62.3547 5.50197C65.7752 5.50197 67.3534 7.69007 67.3534 11.142H67.3471ZM23.8994 1H28.9107V19.6806H23.8994V1ZM37.4242 5.58999C33.4566 5.61514 31.3251 7.53288 31.1554 10.1108H35.4498C35.5316 9.04821 36.2484 8.4886 37.3676 8.4886C38.6251 8.4886 39.235 9.08593 39.235 10.6704V10.8653H36.2672C32.1614 10.8653 30.5455 13.3804 30.5455 15.4868C30.5455 17.9201 32.262 20.0956 35.2486 20.0956C36.9903 20.0956 38.776 19.6241 39.5368 18.2219V19.6744H43.7873V11.1043C43.7873 7.35682 41.1087 5.55227 37.4116 5.5837L37.4242 5.58999ZM39.2413 14.399C39.2413 15.7131 38.4428 16.7254 36.9652 16.7254C35.7579 16.7254 35.0348 16.2224 35.0348 15.2101C35.0348 14.1978 35.9466 13.613 37.1538 13.613H39.2413V14.4053V14.399Z" fill="white" />
</svg>
