<svg width="24" height="24" viewBox="0 0 24 24" fill="none" xmlns="http://www.w3.org/2000/svg">
<path d="M19.2343 22.9333L18.0677 21.7667L19.8093 20H14.8343V18.3334H19.8093L18.0427 16.5667L19.2343 15.4L23.001 19.1667L19.2343 22.9333ZM3.66763 20C3.20653 20 2.81348 19.8375 2.48848 19.5125C2.16348 19.1875 2.00098 18.7944 2.00098 18.3334V5.66665C2.00098 5.20555 2.16348 4.8125 2.48848 4.4875C2.81348 4.1625 3.20653 4 3.66763 4H20.3343C20.7954 4 21.1885 4.1625 21.5135 4.4875C21.8385 4.8125 22.001 5.20555 22.001 5.66665V13.8333C21.5732 13.6111 21.1274 13.4444 20.6635 13.3333C20.1996 13.2222 19.7232 13.1667 19.2343 13.1667C17.5454 13.1667 16.1121 13.7556 14.9343 14.9334C13.7565 16.1111 13.1677 17.5444 13.1677 19.2333V20H3.66763ZM12.001 12.6167L20.3343 7.33333V5.66665L12.001 10.8833L3.66763 5.66665V7.33333L12.001 12.6167Z" fill="#021A0D"/>
</svg>
