<svg width="24" height="24" viewBox="0 0 24 24" fill="none" xmlns="http://www.w3.org/2000/svg">
<path d="M19.2334 22.9333L18.0667 21.7667L19.8084 20H14.8333V18.3334H19.8084L18.0417 16.5667L19.2334 15.4L23 19.1667L19.2334 22.9333ZM3.66665 20C3.20555 20 2.8125 19.8375 2.4875 19.5125C2.1625 19.1875 2 18.7944 2 18.3334V5.66665C2 5.20555 2.1625 4.8125 2.4875 4.4875C2.8125 4.1625 3.20555 4 3.66665 4H20.3334C20.7945 4 21.1875 4.1625 21.5125 4.4875C21.8375 4.8125 22 5.20555 22 5.66665V13.8333C21.5722 13.6111 21.1264 13.4444 20.6625 13.3333C20.1986 13.2222 19.7222 13.1667 19.2334 13.1667C17.5445 13.1667 16.1111 13.7556 14.9334 14.9334C13.7556 16.1111 13.1667 17.5444 13.1667 19.2333V20H3.66665ZM12 12.6167L20.3334 7.33333V5.66665L12 10.8833L3.66665 5.66665V7.33333L12 12.6167Z" fill="white"/>
</svg>
