<svg width="24" height="24" viewBox="0 0 24 24" fill="none" xmlns="http://www.w3.org/2000/svg">
<path d="M9.17166 7.75737L12.0001 4.92894C12.9783 3.95078 14.1568 3.4617 15.5356 3.4617C16.9145 3.4617 18.093 3.95078 19.0712 4.92894C20.0493 5.90711 20.5384 7.08562 20.5384 8.46448C20.5384 9.84334 20.0493 11.0218 19.0712 12L16.2427 14.8284L14.8285 13.4142L17.6569 10.5858C18.2462 9.99654 18.5408 9.28944 18.5408 8.46448C18.5408 7.63952 18.2462 6.93241 17.6569 6.34316C17.0677 5.7539 16.3606 5.45927 15.5356 5.45927C14.7107 5.45927 14.0036 5.7539 13.4143 6.34316L10.5859 9.17158L9.17166 7.75737ZM14.1214 8.46448L15.5356 9.87869L9.87877 15.5355L8.46455 14.1213L14.1214 8.46448ZM7.75745 9.17158L9.17166 10.5858L6.34323 13.4142C5.75398 14.0035 5.45935 14.7106 5.45935 15.5355C5.45935 16.3605 5.75398 17.0676 6.34323 17.6569C6.93249 18.2461 7.6396 18.5407 8.46455 18.5407C9.28951 18.5407 9.99662 18.2461 10.5859 17.6569L13.4143 14.8284L14.8285 16.2427L12.0001 19.0711C11.0219 20.0492 9.84341 20.5383 8.46455 20.5383C7.0857 20.5383 5.90718 20.0492 4.92902 19.0711C3.95086 18.0929 3.46177 16.9144 3.46177 15.5355C3.46177 14.1567 3.95086 12.9782 4.92902 12L7.75745 9.17158Z" fill="#021A0D"/>
</svg>
