<svg width="258" height="42" viewBox="0 0 258 42" fill="none" xmlns="http://www.w3.org/2000/svg">
<path d="M13.5612 35.7093L7.85094 19.0025V35.7093H0V0.70459H7.85664V17.3603L13.6523 0.70459H21.9417L15.0244 17.1329L22.2605 35.7036H13.5612V35.7093Z" fill="#021A0D"/>
<path d="M22.4375 35.7093V0.70459H33.488C36.5624 0.70459 39.0161 1.46606 40.838 2.98331C42.6655 4.50056 43.5764 6.66562 43.5764 9.47851V9.95584C43.5764 13.2233 42.1303 15.5077 39.2382 16.8147C40.9291 17.4853 42.2499 18.5025 43.212 19.8776C44.1685 21.2528 44.6524 22.9178 44.6524 24.8783V25.8103C44.6524 28.9527 43.7301 31.3906 41.8912 33.1124C40.0523 34.8342 37.5928 35.698 34.5185 35.698H22.4432L22.4375 35.7093ZM32.7365 7.24525H30.1575V14.2405H32.7365C33.8638 14.2405 34.7064 13.9621 35.2586 13.3995C35.8166 12.8369 36.0898 11.9504 36.0898 10.7344V10.2797C36.0898 9.21711 35.8109 8.44427 35.2586 7.96694C34.7007 7.4896 33.8638 7.25093 32.7365 7.25093V7.24525ZM33.3514 20.7812H30.1575V29.1687H33.3514C35.5888 29.1687 36.7104 27.7992 36.7104 25.0658V24.6112C36.7104 23.2588 36.4257 22.2814 35.8678 21.6847C35.3042 21.0823 34.4673 20.7869 33.3571 20.7869L33.3514 20.7812Z" fill="#021A0D"/>
<path d="M43.8906 35.7093L49.4187 0.70459H61.773L67.2784 35.7093H59.6551L58.8353 29.4187H52.3735L51.5309 35.7093H43.9077H43.8906ZM53.2503 22.878H57.9301L55.5788 5.83028L53.2503 22.878Z" fill="#021A0D"/>
<path d="M67 28.9414H69.2374C69.9832 27.3332 70.4786 24.7078 70.7234 21.0653C70.9682 17.4284 71.082 10.6378 71.065 0.70459H91.9534V28.9414H95.0334V42H87.8884V35.7093H74.145V42H67V28.9414ZM77.5438 25.1568C77.3161 26.6911 76.9404 27.9526 76.428 28.9414H84.0056V7.47255H78.2953C78.2669 12.4278 78.1985 16.1953 78.1018 18.7866C78.005 21.3778 77.8171 23.4974 77.5438 25.1568Z" fill="#021A0D"/>
<path d="M95.8281 35.7093V0.70459H106.788C110.073 0.70459 112.657 1.59107 114.525 3.35836C116.398 5.12564 117.331 7.67144 117.331 10.9787V12.8255C117.331 16.184 116.392 18.7752 114.513 20.5993C112.634 22.4234 110.055 23.3327 106.788 23.3327H103.548V35.7093H95.8338H95.8281ZM106.4 7.24525H103.548V16.8147H106.4C108.774 16.8147 109.964 15.3316 109.964 12.3709V11.439C109.964 9.95016 109.663 8.88183 109.065 8.22834C108.461 7.57484 107.579 7.25093 106.406 7.25093L106.4 7.24525Z" fill="#021A0D"/>
<path d="M125.089 0.70459V27.2536L131.278 0.70459H141.372V35.7093H134.728V9.16028L128.562 35.7093H118.445V0.70459H125.089Z" fill="#021A0D"/>
<path d="M143.875 35.7093V0.70459H160.818V7.47255H151.732V35.7093H143.875Z" fill="#021A0D"/>
<path d="M157.312 35.7093L162.841 0.70459H175.195L180.7 35.7093H173.077L172.257 29.4187H165.795L164.953 35.7093H157.33H157.312ZM166.672 22.878H171.352L169.001 5.83028L166.672 22.878Z" fill="#021A0D"/>
<path d="M211.695 24.2703C211.695 28.2481 210.693 31.2713 208.695 33.3284C206.691 35.3855 203.878 36.414 200.257 36.414C196.636 36.414 193.818 35.3855 191.809 33.3284C189.799 31.2713 188.797 28.2481 188.797 24.2703V23.1054H196.745V24.4976C196.745 26.3331 197.041 27.6515 197.633 28.4527C198.225 29.2483 199.102 29.6517 200.257 29.6517C201.413 29.6517 202.284 29.254 202.871 28.4527C203.457 27.6571 203.747 26.3388 203.747 24.4976V21.0085H196.079V14.4679H203.747V11.9164C203.747 10.0639 203.451 8.73982 202.859 7.94994C202.267 7.16006 201.396 6.76228 200.257 6.76228C199.119 6.76228 198.225 7.16006 197.633 7.94994C197.041 8.73982 196.745 10.0639 196.745 11.9164V12.5983H188.797V12.1437C188.797 8.16588 189.799 5.14274 191.809 3.08564C193.818 1.02855 196.631 0 200.257 0C203.884 0 206.691 1.02855 208.695 3.08564C210.699 5.14274 211.695 8.16588 211.695 12.1437V24.2646V24.2703Z" fill="#00C566"/>
<path d="M227.629 35.5731L221.919 18.8663V35.5731H214.062V0.568359H221.919V17.224L227.721 0.568359H236.01L229.093 16.9967L236.329 35.5674H227.629V35.5731Z" fill="#00C566"/>
<path fill-rule="evenodd" clip-rule="evenodd" d="M246.562 36.414C250.183 36.414 252.995 35.3854 254.999 33.3283C256.998 31.2712 258 28.2481 258 24.2703V12.1493C258 8.17149 257.003 5.14836 254.999 3.09126C252.995 1.03416 250.189 0.00561523 246.562 0.00561523C242.935 0.00561523 240.123 1.03416 238.113 3.09126C236.104 5.14836 235.102 8.17149 235.102 12.1493V24.2703C235.102 28.2481 236.104 31.2712 238.113 33.3283C240.123 35.3854 242.941 36.414 246.562 36.414Z" fill="#00C566"/>
<path d="M256.248 21.5125L253.811 19.0918L248.463 24.4092V5.0105H245.016V16.671L239.632 10.9407L237.195 13.3615L245.016 21.5125V41.3374H248.463V29.2541L256.248 21.5125Z" fill="white"/>
</svg>
