<svg width="24" height="24" viewBox="0 0 24 24" fill="none" xmlns="http://www.w3.org/2000/svg">
<path d="M13.4747 11.6754H10.7618V7.65534H13.4747C14.0119 7.65534 14.4684 7.84983 14.8442 8.23881C15.22 8.62779 15.4079 9.10206 15.4079 9.6616C15.4079 10.2212 15.2209 10.6967 14.8468 11.0882C14.4726 11.4796 14.0153 11.6754 13.4747 11.6754Z" fill="white"/>
<path fill-rule="evenodd" clip-rule="evenodd" d="M12 22C17.5228 22 22 17.5228 22 12C22 6.47715 17.5228 2 12 2C6.47715 2 2 6.47715 2 12C2 17.5228 6.47715 22 12 22ZM9.16967 16.0113V18H10.7618V16.0113H13.491V14.3559H10.7618V13.3307H13.4747C14.4537 13.3307 15.286 12.9734 15.9716 12.2589C16.6572 11.5443 17 10.6786 17 9.66167C17 8.64478 16.6572 7.78027 15.9716 7.06816C15.286 6.35605 14.4537 6 13.4747 6H9.16967V11.6754H8V13.3307H9.16967V14.3559H8V16.0113H9.16967Z" fill="white"/>
</svg>
