<svg width="16" height="16" viewBox="0 0 16 16" fill="none" xmlns="http://www.w3.org/2000/svg">
<path d="M8 16C7.77778 16 7.58333 15.9653 7.41667 15.8958C7.25 15.8264 7.09028 15.7153 6.9375 15.5625L0.4375 9.0625C0.284722 8.90972 0.173611 8.75 0.104167 8.58333C0.0347222 8.41667 0 8.22222 0 8C0 7.77778 0.0347222 7.58333 0.104167 7.41667C0.173611 7.25 0.282639 7.09236 0.43125 6.94375L6.9375 0.4375C7.09028 0.284722 7.25 0.173611 7.41667 0.104167C7.58333 0.0347222 7.77778 0 8 0C8.22222 0 8.41667 0.0347222 8.58333 0.104167C8.75 0.173611 8.90972 0.284722 9.0625 0.4375L15.5625 6.9375C15.7153 7.09028 15.8264 7.25 15.8958 7.41667C15.9653 7.58333 16 7.77778 16 8C16 8.22222 15.9653 8.41667 15.8958 8.58333C15.8264 8.75 15.7153 8.90972 15.5625 9.0625L9.05625 15.5688C8.90764 15.7174 8.75 15.8264 8.58333 15.8958C8.41667 15.9653 8.22222 16 8 16ZM7.25 8.5H8.75V4H7.25V8.5ZM7.99563 11C8.20688 11 8.38542 10.9285 8.53125 10.7856C8.67708 10.6427 8.75 10.4656 8.75 10.2544C8.75 10.0431 8.67854 9.86458 8.53563 9.71875C8.39271 9.57292 8.21563 9.5 8.00438 9.5C7.79313 9.5 7.61458 9.57146 7.46875 9.71438C7.32292 9.85729 7.25 10.0344 7.25 10.2456C7.25 10.4569 7.32146 10.6354 7.46438 10.7812C7.60729 10.9271 7.78438 11 7.99563 11Z" fill="#021A0D" fill-opacity="0.4"/>
</svg>
