<svg width="14" height="14" viewBox="0 0 14 14" fill="none" xmlns="http://www.w3.org/2000/svg">
<path d="M9.5 14L4.5 12.5L1.3125 13.5625C0.993056 13.6736 0.694444 13.6319 0.416667 13.4375C0.138889 13.2431 0 12.9653 0 12.6042V2.22917C0 2.00694 0.0659722 1.80903 0.197917 1.63542C0.329861 1.46181 0.493056 1.34028 0.6875 1.27083L4.5 0L9.5 1.5L12.6875 0.4375C13.0069 0.3125 13.3056 0.350694 13.5833 0.552083C13.8611 0.753472 14 1.03472 14 1.39583V11.7708C14 11.9931 13.9375 12.191 13.8125 12.3646C13.6875 12.5382 13.5208 12.6597 13.3125 12.7292L9.5 14ZM8.75 12.2083V2.83333L5.25 1.79167V11.1667L8.75 12.2083Z" fill="#021A0D"/>
</svg>
