<svg width="24" height="24" viewBox="0 0 24 24" fill="none" xmlns="http://www.w3.org/2000/svg">
<path d="M11.999 16.47L7.84904 18.97C7.66571 19.0867 7.47404 19.1367 7.27404 19.12C7.07404 19.1034 6.89904 19.0367 6.74904 18.92C6.59904 18.8034 6.48237 18.6575 6.39904 18.4825C6.31571 18.3075 6.29904 18.1117 6.34904 17.895L7.44904 13.17L3.77404 9.99502C3.60737 9.84502 3.50321 9.67419 3.46154 9.48252C3.41987 9.29085 3.43237 9.10335 3.49904 8.92002C3.56571 8.73669 3.66571 8.58669 3.79904 8.47002C3.93237 8.35335 4.11571 8.27835 4.34904 8.24502L9.19904 7.82002L11.074 3.37002C11.1574 3.17002 11.2865 3.02002 11.4615 2.92002C11.6365 2.82002 11.8157 2.77002 11.999 2.77002C12.1824 2.77002 12.3615 2.82002 12.5365 2.92002C12.7115 3.02002 12.8407 3.17002 12.924 3.37002L14.799 7.82002L19.649 8.24502C19.8824 8.27835 20.0657 8.35335 20.199 8.47002C20.3324 8.58669 20.4324 8.73669 20.499 8.92002C20.5657 9.10335 20.5782 9.29085 20.5365 9.48252C20.4949 9.67419 20.3907 9.84502 20.224 9.99502L16.549 13.17L17.649 17.895C17.699 18.1117 17.6824 18.3075 17.599 18.4825C17.5157 18.6575 17.399 18.8034 17.249 18.92C17.099 19.0367 16.924 19.1034 16.724 19.12C16.524 19.1367 16.3324 19.0867 16.149 18.97L11.999 16.47Z" fill="white" fill-opacity="0.6"/>
</svg>
