<svg width="44" height="37" viewBox="0 0 44 37" fill="none" xmlns="http://www.w3.org/2000/svg">
<path fill-rule="evenodd" clip-rule="evenodd" d="M3.02477 15.9283C14.8359 10.7067 22.7118 7.26434 26.6526 5.60116C37.9042 0.852433 40.2422 0.0275293 41.7661 0.000290427C42.1012 -0.00570045 42.8506 0.0785831 43.3361 0.478262C43.746 0.815744 43.8587 1.27163 43.9127 1.5916C43.9667 1.91157 44.0339 2.64047 43.9804 3.21001C43.3707 9.71065 40.7324 25.486 39.3902 32.7668C38.8223 35.8476 37.704 36.8806 36.6213 36.9817C34.2685 37.2014 32.4819 35.4039 30.2031 33.8882C26.6372 31.5163 24.6227 30.0398 21.1613 27.7253C17.1612 25.0505 19.7543 23.5804 22.034 21.1779C22.6306 20.5491 32.9972 10.9813 33.1978 10.1134C33.2229 10.0048 33.2462 9.60018 33.0093 9.38652C32.7724 9.17287 32.4228 9.24593 32.1704 9.30404C31.8128 9.3864 26.1162 13.207 15.0807 20.7657C13.4637 21.8924 11.9992 22.4413 10.6869 22.4125C9.24032 22.3808 6.45761 21.5826 4.38895 20.9003C1.85165 20.0634 -0.164941 19.6209 0.0106594 18.1996C0.102123 17.4593 1.10683 16.7022 3.02477 15.9283Z" fill="#fff"/>
</svg>
