<svg width="56" height="56" viewBox="0 0 56 56" fill="none" xmlns="http://www.w3.org/2000/svg">
<rect width="56" height="56" rx="16" fill="#2BACEF"/>
<path fill-rule="evenodd" clip-rule="evenodd" d="M13.0623 26.7623C21.1154 23.2343 26.4854 20.9083 29.1722 19.7846C36.8438 16.576 38.4379 16.0186 39.4769 16.0002C39.7054 15.9961 40.2163 16.0531 40.5473 16.3232C40.8268 16.5512 40.9037 16.8592 40.9405 17.0754C40.9773 17.2916 41.0231 17.7841 40.9867 18.1689C40.5709 22.5613 38.7721 33.2203 37.857 38.1397C37.4697 40.2214 36.7073 40.9193 35.9691 40.9876C34.3649 41.1361 33.1467 39.9216 31.593 38.8974C29.1617 37.2948 27.7882 36.2972 25.4282 34.7333C22.7008 32.926 24.4688 31.9327 26.0232 30.3094C26.4299 29.8845 33.4981 23.4198 33.6349 22.8334C33.652 22.76 33.6679 22.4866 33.5063 22.3422C33.3448 22.1979 33.1064 22.2472 32.9344 22.2865C32.6905 22.3422 28.8065 24.9236 21.2823 30.0309C20.1798 30.7921 19.1812 31.1631 18.2865 31.1436C17.3002 31.1222 15.4029 30.5828 13.9925 30.1218C12.2625 29.5563 10.8875 29.2574 11.0073 28.297C11.0696 27.7968 11.7547 27.2853 13.0623 26.7623Z" fill="white"/>
</svg>
