<svg width="20" height="20" viewBox="0 0 20 20" fill="none" xmlns="http://www.w3.org/2000/svg">
<path d="M10.75 9.7V7C10.75 6.7875 10.6781 6.60938 10.5344 6.46562C10.3906 6.32187 10.2125 6.25 10 6.25C9.7875 6.25 9.60938 6.32187 9.46563 6.46562C9.32188 6.60938 9.25 6.7875 9.25 7V9.98125C9.25 10.0813 9.26875 10.1781 9.30625 10.2719C9.34375 10.3656 9.4 10.45 9.475 10.525L11.95 13C12.0875 13.1375 12.2625 13.2063 12.475 13.2063C12.6875 13.2063 12.8625 13.1375 13 13C13.1375 12.8625 13.2063 12.6875 13.2063 12.475C13.2063 12.2625 13.1375 12.0875 13 11.95L10.75 9.7ZM10 17.5C8.9625 17.5 7.9875 17.3031 7.075 16.9094C6.1625 16.5156 5.36875 15.9813 4.69375 15.3063C4.01875 14.6313 3.48438 13.8375 3.09063 12.925C2.69687 12.0125 2.5 11.0375 2.5 10C2.5 8.9625 2.69687 7.9875 3.09063 7.075C3.48438 6.1625 4.01875 5.36875 4.69375 4.69375C5.36875 4.01875 6.1625 3.48438 7.075 3.09063C7.9875 2.69687 8.9625 2.5 10 2.5C11.0375 2.5 12.0125 2.69687 12.925 3.09063C13.8375 3.48438 14.6313 4.01875 15.3063 4.69375C15.9813 5.36875 16.5156 6.1625 16.9094 7.075C17.3031 7.9875 17.5 8.9625 17.5 10C17.5 11.0375 17.3031 12.0125 16.9094 12.925C16.5156 13.8375 15.9813 14.6313 15.3063 15.3063C14.6313 15.9813 13.8375 16.5156 12.925 16.9094C12.0125 17.3031 11.0375 17.5 10 17.5Z" fill="#021A0D" fill-opacity="0.4"/>
</svg>
