<svg width="56" height="56" viewBox="0 0 56 56" fill="none" xmlns="http://www.w3.org/2000/svg">
<rect width="56" height="56" rx="16" fill="url(#paint0_linear_2037_34371)"/>
<path d="M11.5 44.5L13.9013 35.7691C12.4195 33.2134 11.6409 30.3163 11.6423 27.3456C11.6466 18.0579 19.2406 10.5 28.5712 10.5C33.0991 10.5014 37.3494 12.2567 40.5465 15.4413C43.7421 18.626 45.5014 22.859 45.5 27.3612C45.4957 36.6502 37.9017 44.2082 28.5712 44.2082C25.7385 44.2067 22.9472 43.4998 20.4747 42.1568L11.5 44.5ZM20.8904 39.1068C23.276 40.5163 25.5535 41.3607 28.5655 41.3621C36.3203 41.3621 42.6375 35.0806 42.6418 27.3583C42.6446 19.6205 36.3573 13.3475 28.5769 13.3447C20.8163 13.3447 14.5034 19.6262 14.5006 27.347C14.4992 30.4991 15.4272 32.8592 16.9859 35.3285L15.5639 40.4965L20.8904 39.1068ZM37.0989 31.3661C36.9936 31.1904 36.7118 31.0856 36.2876 30.8745C35.8648 30.6634 33.7852 29.6448 33.3966 29.5046C33.0094 29.3643 32.7276 29.2935 32.4443 29.7157C32.1625 30.1364 31.3511 31.0856 31.1049 31.3661C30.8586 31.6466 30.6109 31.682 30.1882 31.4709C29.7654 31.2598 28.4018 30.8164 26.7862 29.3813C25.5293 28.265 24.6795 26.8866 24.4333 26.4644C24.187 26.0437 24.4076 25.8156 24.6183 25.6059C24.809 25.4175 25.0411 25.1143 25.2532 24.8678C25.4681 24.6242 25.5378 24.4485 25.6802 24.1666C25.8211 23.8861 25.7514 23.6396 25.6446 23.4285C25.5378 23.2188 24.6923 21.1462 24.3407 20.3033C23.9963 19.4831 23.6475 19.5936 23.3885 19.5808L22.5771 19.5667C22.2953 19.5667 21.8369 19.6715 21.4498 20.0937C21.0626 20.5158 19.9694 21.533 19.9694 23.6056C19.9694 25.6782 21.4853 27.6799 21.696 27.9604C21.9081 28.2409 24.6781 32.4937 28.9213 34.317C29.9305 34.7505 30.7191 35.0097 31.3326 35.2038C32.3461 35.524 33.2685 35.4787 33.9973 35.371C34.8101 35.2506 36.4997 34.3524 36.8527 33.3692C37.2057 32.3847 37.2057 31.5417 37.0989 31.3661Z" fill="white"/>
<defs>
<linearGradient id="paint0_linear_2037_34371" x1="0" y1="0" x2="56" y2="56" gradientUnits="userSpaceOnUse">
<stop stop-color="#00FF68"/>
<stop offset="1" stop-color="#00D41F"/>
</linearGradient>
</defs>
</svg>
