<svg width="20" height="20" viewBox="0 0 20 20" fill="none" xmlns="http://www.w3.org/2000/svg">
<path d="M10.15 13.0001C10.9833 13.0001 11.6917 12.7084 12.275 12.1251C12.8583 11.5417 13.15 10.8334 13.15 10.0001C13.15 9.16674 12.8583 8.45841 12.275 7.87508C11.6917 7.29174 10.9833 7.00008 10.15 7.00008C9.31667 7.00008 8.60833 7.29174 8.025 7.87508C7.44167 8.45841 7.15 9.16674 7.15 10.0001C7.15 10.8334 7.44167 11.5417 8.025 12.1251C8.60833 12.7084 9.31667 13.0001 10.15 13.0001ZM10.15 11.8001C9.65 11.8001 9.225 11.6251 8.875 11.2751C8.525 10.9251 8.35 10.5001 8.35 10.0001C8.35 9.50008 8.525 9.07508 8.875 8.72508C9.225 8.37508 9.65 8.20008 10.15 8.20008C10.65 8.20008 11.075 8.37508 11.425 8.72508C11.775 9.07508 11.95 9.50008 11.95 10.0001C11.95 10.5001 11.775 10.9251 11.425 11.2751C11.075 11.6251 10.65 11.8001 10.15 11.8001ZM10.15 15.0001C8.66111 15.0001 7.30278 14.6001 6.075 13.8001C4.84722 13.0001 3.87778 11.9445 3.16667 10.6334C3.11111 10.5334 3.06944 10.4306 3.04167 10.3251C3.01389 10.2195 3 10.1112 3 10.0001C3 9.88897 3.01389 9.78063 3.04167 9.67508C3.06944 9.56952 3.11111 9.46674 3.16667 9.36674C3.87778 8.05563 4.84722 7.00008 6.075 6.20008C7.30278 5.40008 8.66111 5.00008 10.15 5.00008C11.6389 5.00008 12.9972 5.40008 14.225 6.20008C15.4528 7.00008 16.4222 8.05563 17.1333 9.36674C17.1889 9.46674 17.2306 9.56952 17.2583 9.67508C17.2861 9.78063 17.3 9.88897 17.3 10.0001C17.3 10.1112 17.2861 10.2195 17.2583 10.3251C17.2306 10.4306 17.1889 10.5334 17.1333 10.6334C16.4222 11.9445 15.4528 13.0001 14.225 13.8001C12.9972 14.6001 11.6389 15.0001 10.15 15.0001Z" fill="#021A0D" fill-opacity="0.4"/>
</svg>
